<svg xmlns="http://www.w3.org/2000/svg" width="29" height="27.189" viewBox="0 0 29 27.189">
  <g id="cart" transform="translate(0 -15.988)">
    <g id="Group_4" data-name="Group 4" transform="translate(9.063 37.739)">
      <g id="Group_3" data-name="Group 3" transform="translate(0 0)">
        <path id="Path_1" data-name="Path 1" d="M162.719,399.988a2.719,2.719,0,1,0,2.719,2.719A2.722,2.722,0,0,0,162.719,399.988Zm0,3.625a.906.906,0,1,1,.906-.906A.907.907,0,0,1,162.719,403.613Z" transform="translate(-160 -399.988)"/>
      </g>
    </g>
    <g id="Group_6" data-name="Group 6" transform="translate(19.938 37.739)">
      <g id="Group_5" data-name="Group 5" transform="translate(0 0)">
        <path id="Path_2" data-name="Path 2" d="M354.719,399.988a2.719,2.719,0,1,0,2.719,2.719A2.722,2.722,0,0,0,354.719,399.988Zm0,3.625a.906.906,0,1,1,.906-.906A.907.907,0,0,1,354.719,403.613Z" transform="translate(-352 -399.988)"/>
      </g>
    </g>
    <g id="Group_8" data-name="Group 8" transform="translate(0 15.988)">
      <g id="Group_7" data-name="Group 7" transform="translate(0 0)">
        <path id="Path_3" data-name="Path 3" d="M28.789,19.939a.9.9,0,0,0-.694-.326H6.794L6.005,16.66a.9.9,0,0,0-.875-.672H.906a.906.906,0,0,0,0,1.813H4.434l4.66,17.453a.9.9,0,0,0,.875.672h14.5a.906.906,0,1,0,0-1.813h-13.8l-.531-1.99,16.188-.729a.906.906,0,0,0,.85-.743l1.813-9.969A.9.9,0,0,0,28.789,19.939Zm-3.268,9.677-15.867.714L7.278,21.426H27.009Z" transform="translate(0 -15.988)"/>
      </g>
    </g>
    <g id="Group_10" data-name="Group 10" transform="translate(21.751 23.238)">
      <g id="Group_9" data-name="Group 9">
        <path id="Path_4" data-name="Path 4" d="M384.906,143.988a.907.907,0,0,0-.906.906v3.625a.906.906,0,1,0,1.813,0v-3.625A.907.907,0,0,0,384.906,143.988Z" transform="translate(-384 -143.988)"/>
      </g>
    </g>
    <g id="Group_12" data-name="Group 12" transform="translate(16.313 23.238)">
      <g id="Group_11" data-name="Group 11">
        <path id="Path_5" data-name="Path 5" d="M288.906,143.988a.907.907,0,0,0-.906.906v3.625a.906.906,0,1,0,1.813,0v-3.625A.907.907,0,0,0,288.906,143.988Z" transform="translate(-288 -143.988)"/>
      </g>
    </g>
    <g id="Group_14" data-name="Group 14" transform="translate(10.876 23.238)">
      <g id="Group_13" data-name="Group 13">
        <path id="Path_6" data-name="Path 6" d="M192.906,143.988a.907.907,0,0,0-.906.906v3.625a.906.906,0,1,0,1.813,0v-3.625A.907.907,0,0,0,192.906,143.988Z" transform="translate(-192 -143.988)"/>
      </g>
    </g>
  </g>
</svg>
