<svg xmlns="http://www.w3.org/2000/svg" width="43.937" height="43.937" viewBox="0 0 43.937 43.937">
  <g id="Group_71" data-name="Group 71" transform="translate(0)">
    <path id="Path_9" data-name="Path 9" d="M22.585.026A21.9,21.9,0,0,0,1.69,21.859a21.554,21.554,0,0,0,2.391,9.829L1.749,42.917a.852.852,0,0,0,1.035,1l11.094-2.607A22.012,22.012,0,0,0,45.616,22.488,21.885,21.885,0,0,0,22.585.026ZM35.822,33.856A17.321,17.321,0,0,1,16,37.074l-1.545-.763-6.8,1.6,1.432-6.894-.761-1.478A16.97,16.97,0,0,1,11.5,9.726a17.3,17.3,0,0,1,24.327,0,16.965,16.965,0,0,1,0,24.13Z" transform="translate(-1.69 0)" fill="#fff"/>
    <path id="Path_10" data-name="Path 10" d="M125.446,123.268l-4.086-1.261a1.451,1.451,0,0,0-1.507.427l-1,1.095a1.415,1.415,0,0,1-1.618.367c-1.933-.841-6-4.728-7.037-6.672a1.7,1.7,0,0,1,.118-1.774l.872-1.213a1.739,1.739,0,0,0,.188-1.663l-1.719-4.18a1.473,1.473,0,0,0-2.379-.586,7.45,7.45,0,0,0-2.658,4.359c-.29,3.078.938,6.958,5.58,11.617,5.364,5.382,9.659,6.093,12.455,5.365,1.586-.413,2.854-2.069,3.654-3.425A1.68,1.68,0,0,0,125.446,123.268Z" transform="translate(-93.58 -96.417)" fill="#fff"/>
  </g>
</svg>
