<svg xmlns="http://www.w3.org/2000/svg" width="80" height="80" viewBox="0 0 80 80">
  <g id="icon_1" data-name="icon 1" transform="translate(-563 -892)">
    <rect id="Rectangle_34" data-name="Rectangle 34" width="80" height="80" rx="13" transform="translate(563 892)" fill="#fff"/>
    <g id="quality" transform="translate(577.575 907.001)">
      <path id="Path_28" data-name="Path 28" d="M185.485,192.964l-9.043,8.541-4.34-4.465a1.251,1.251,0,1,0-1.794,1.743l5.205,5.343a1.274,1.274,0,0,0,1.769.037l9.947-9.382a1.25,1.25,0,0,0,.05-1.769A1.28,1.28,0,0,0,185.485,192.964Zm0,0" transform="translate(-153.361 -173.557)" fill="#329795"/>
      <path id="Path_29" data-name="Path 29" d="M104.523,90.551A13.645,13.645,0,1,0,118.171,104.2,13.66,13.66,0,0,0,104.523,90.551Zm0,25.464A11.819,11.819,0,1,1,116.344,104.2,11.834,11.834,0,0,1,104.523,116.015Zm0,0" transform="translate(-79.105 -79.194)" fill="#329795"/>
      <path id="Path_30" data-name="Path 30" d="M46.84,19.271l.344-6.179a1.04,1.04,0,0,0-.573-.99l-5.5-2.782-2.782-5.5a1.057,1.057,0,0,0-.99-.573l-6.19.334L25.99.171a1.041,1.041,0,0,0-1.146,0L19.686,3.579l-6.179-.344a1.038,1.038,0,0,0-.99.573l-2.782,5.5-5.5,2.782a1.056,1.056,0,0,0-.573.99L4,19.26.6,24.418a1.041,1.041,0,0,0,0,1.146l3.4,5.168L3.65,36.912a1.039,1.039,0,0,0,.573.99l5.5,2.782,2.782,5.5a1.056,1.056,0,0,0,.99.573l6.179-.344,5.158,3.407a1.015,1.015,0,0,0,1.146,0l5.158-3.407,6.179.344a1.04,1.04,0,0,0,.99-.573l2.782-5.5,5.5-2.782a1.057,1.057,0,0,0,.573-.99l-.344-6.179,3.407-5.158a1.041,1.041,0,0,0,0-1.146ZM44.9,29.878a.978.978,0,0,0-.166.636l.323,5.845-5.2,2.626a1.028,1.028,0,0,0-.458.459l-2.626,5.2-5.845-.323a1.138,1.138,0,0,0-.636.166l-4.877,3.22-4.876-3.22a1.031,1.031,0,0,0-.573-.177h-.052l-5.846.323-2.626-5.2a1.026,1.026,0,0,0-.459-.458l-5.21-2.616L6.1,30.514a1.139,1.139,0,0,0-.167-.636L2.712,25l3.22-4.877A.975.975,0,0,0,6.1,19.49l-.323-5.846,5.2-2.626a1.027,1.027,0,0,0,.458-.458l2.626-5.2,5.846.323a1.144,1.144,0,0,0,.636-.167L25.417,2.3l4.877,3.22a.977.977,0,0,0,.636.167l5.845-.323,2.626,5.2a1.027,1.027,0,0,0,.458.458l5.2,2.626-.323,5.846a1.141,1.141,0,0,0,.166.635L48.122,25Zm0,0" transform="translate(0 0)" fill="#329795"/>
    </g>
  </g>
</svg>
