<svg xmlns="http://www.w3.org/2000/svg" width="80" height="80" viewBox="0 0 80 80">
  <g id="icon_3" data-name="icon 3" transform="translate(-1260 -892)">
    <rect id="Rectangle_36" data-name="Rectangle 36" width="80" height="80" rx="13" transform="translate(1260 892)" fill="#fff"/>
    <g id="delivery" transform="translate(1264 828.479)">
      <g id="Group_43" data-name="Group 43" transform="translate(45.334 110.309)">
        <g id="Group_42" data-name="Group 42">
          <path id="Path_33" data-name="Path 33" d="M331.257,304.4a9.106,9.106,0,1,0,9.106,9.106A9.116,9.116,0,0,0,331.257,304.4Zm0,13.659a4.553,4.553,0,1,1,4.553-4.553A4.558,4.558,0,0,1,331.257,318.062Z" transform="translate(-322.151 -304.403)" fill="#329795"/>
        </g>
      </g>
      <g id="Group_45" data-name="Group 45" transform="translate(14.31 110.309)">
        <g id="Group_44" data-name="Group 44">
          <path id="Path_34" data-name="Path 34" d="M110.753,304.4a9.106,9.106,0,1,0,9.106,9.106A9.116,9.116,0,0,0,110.753,304.4Zm0,13.659a4.553,4.553,0,1,1,4.553-4.553A4.558,4.558,0,0,1,110.753,318.062Z" transform="translate(-101.647 -304.403)" fill="#329795"/>
        </g>
      </g>
      <g id="Group_47" data-name="Group 47" transform="translate(46.548 83.074)">
        <g id="Group_46" data-name="Group 46">
          <path id="Path_35" data-name="Path 35" d="M344.78,112.044a2.278,2.278,0,0,0-2.035-1.254h-11.99v4.553h10.586l6.2,12.33,4.069-2.046Z" transform="translate(-330.756 -110.79)" fill="#329795"/>
        </g>
      </g>
      <g id="Group_49" data-name="Group 49" transform="translate(30.439 117.214)">
        <g id="Group_48" data-name="Group 48">
          <rect id="Rectangle_33" data-name="Rectangle 33" width="17.226" height="4.553" fill="#329795"/>
        </g>
      </g>
      <g id="Group_51" data-name="Group 51" transform="translate(6.45 117.214)">
        <g id="Group_50" data-name="Group 50">
          <path id="Path_36" data-name="Path 36" d="M55.883,353.345H47.991a2.276,2.276,0,1,0,0,4.553h7.892a2.276,2.276,0,1,0,0-4.553Z" transform="translate(-45.715 -353.345)" fill="#329795"/>
        </g>
      </g>
      <g id="Group_53" data-name="Group 53" transform="translate(6.45 78.521)" style="mix-blend-mode: normal;isolation: isolate">
        <g id="Group_52" data-name="Group 52">
          <path id="Path_37" data-name="Path 37" d="M110.909,103.333l-4.47-5.756a2.269,2.269,0,0,0-1.794-.879H88.132v-15.9a2.272,2.272,0,0,0-2.272-2.272H47.987a2.272,2.272,0,1,0,0,4.544h35.6v15.9a2.272,2.272,0,0,0,2.272,2.272h17.672l3.309,4.262v11.718h-6.287a2.272,2.272,0,1,0,0,4.544h8.559a2.272,2.272,0,0,0,2.272-2.272V104.726A2.275,2.275,0,0,0,110.909,103.333Z" transform="translate(-45.715 -78.521)" fill="#329795"/>
        </g>
      </g>
      <g id="Group_55" data-name="Group 55" transform="translate(3.718 105.713)">
        <g id="Group_54" data-name="Group 54">
          <path id="Path_38" data-name="Path 38" d="M39.1,271.6H28.629a2.276,2.276,0,1,0,0,4.553H39.1a2.276,2.276,0,0,0,0-4.553Z" transform="translate(-26.353 -271.597)" fill="#329795"/>
        </g>
      </g>
      <g id="Group_57" data-name="Group 57" transform="translate(0 96.775)">
        <g id="Group_56" data-name="Group 56">
          <path id="Path_39" data-name="Path 39" d="M21.7,208.134H2.276a2.277,2.277,0,0,0,0,4.553H21.7a2.277,2.277,0,0,0,0-4.553Z" transform="translate(0 -208.134)" fill="#329795"/>
        </g>
      </g>
      <g id="Group_59" data-name="Group 59" transform="translate(3.718 87.838)">
        <g id="Group_58" data-name="Group 58">
          <path id="Path_40" data-name="Path 40" d="M48.056,144.672H28.629a2.276,2.276,0,0,0,0,4.553H48.056a2.276,2.276,0,1,0,0-4.553Z" transform="translate(-26.353 -144.672)" fill="#329795"/>
        </g>
      </g>
    </g>
  </g>
</svg>
