<svg xmlns="http://www.w3.org/2000/svg" width="80" height="80" viewBox="0 0 80 80">
  <g id="icon_2" data-name="icon 2" transform="translate(-924 -892)">
    <rect id="Rectangle_35" data-name="Rectangle 35" width="80" height="80" rx="13" transform="translate(924 892)" fill="#fff"/>
    <g id="maquinaria" transform="translate(936 891.306)">
      <path id="Path_31" data-name="Path 31" d="M91.513,133.4a5.2,5.2,0,1,0,5.2,5.2A5.2,5.2,0,0,0,91.513,133.4Zm0,7.108a1.911,1.911,0,1,1,1.911-1.911A1.913,1.913,0,0,1,91.513,140.5Z" transform="translate(-70.67 -96.485)" fill="#329795"/>
      <path id="Path_32" data-name="Path 32" d="M54.543,57.054H26.366V48.719A8.739,8.739,0,0,0,24.947,34.6l-2.4-4.356h8.363a1.366,1.366,0,0,0,1.366-1.366V27.288h12.04v3.177H39.771a1.366,1.366,0,0,0-1.222,1.977L41.5,38.35a1.366,1.366,0,0,0,2.443-1.222L41.981,33.2h7.4l-1.966,3.932a1.366,1.366,0,0,0,2.443,1.222l2.954-5.909a1.366,1.366,0,0,0-1.222-1.977H47.046v-3.4a4.32,4.32,0,0,0-1.366-8.418H32.275V17.06a1.366,1.366,0,0,0-1.366-1.366H10.229l-.007,0A7.273,7.273,0,0,0,3.859,26.481l8.032,14.57a8.5,8.5,0,0,0-.015,2.12L3.547,57.054H1.366A1.366,1.366,0,0,0,0,58.419v5.909a1.366,1.366,0,0,0,1.366,1.366H54.543a1.366,1.366,0,0,0,1.366-1.366V58.419A1.366,1.366,0,0,0,54.543,57.054ZM20.569,48.191a6.02,6.02,0,1,1,6.02-6.02A6.027,6.027,0,0,1,20.569,48.191ZM45.68,24.557a1.589,1.589,0,1,1,1.589-1.588A1.59,1.59,0,0,1,45.68,24.557ZM41.664,21.38a4.3,4.3,0,0,0,0,3.177H32.275V21.38ZM29.543,27.511h-8.5L16.6,19.458a7.284,7.284,0,0,0-.691-1.032H29.543ZM6.252,25.163a4.543,4.543,0,0,1,7.956-4.386l6.983,12.668c-.206-.014-.413-.025-.623-.025a8.754,8.754,0,0,0-7.46,4.182Zm6.763,21.42a8.742,8.742,0,0,0,10.619,3.784v6.686H6.733ZM53.177,62.962H2.732V59.785H53.177v3.177Z" transform="translate(0)" fill="#329795"/>
    </g>
  </g>
</svg>
